<svg xmlns="http://www.w3.org/2000/svg" id="export" class="canvas" preserveAspectRatio="xMidYMid meet" style="" width="147" height="527"><rect id="background" fill="#fff" pointer-events="all" width="147" height="527"/><g id="origin" transform="translate(6.6484375, 6.6484375) scale(1)"><g id="clusters" class="clusters"/><g id="edge-paths" class="edge-paths"><defs><marker id="arrowhead" viewBox="0 0 10 10" refX="9" refY="5" markerUnits="strokeWidth" markerWidth="8" markerHeight="6" orient="auto" style="fill: rgb(0, 0, 0);"><path d="M 0 0 L 10 5 L 0 10 L 4 5 z" style="stroke-width: 1;"/></marker><marker id="arrowhead-select" viewBox="0 0 10 10" refX="9" refY="5" markerUnits="strokeWidth" markerWidth="8" markerHeight="6" orient="auto" style="fill: rgb(238, 0, 0);"><path d="M 0 0 L 10 5 L 0 10 L 4 5 z" style="stroke-width: 1;"/></marker><marker id="arrowhead-hover" viewBox="0 0 10 10" refX="9" refY="5" markerUnits="strokeWidth" markerWidth="8" markerHeight="6" orient="auto"><path d="M 0 0 L 10 5 L 0 10 L 4 5 z" style="stroke-width: 1;"/></marker></defs><path id="edge-embedding_1_input" class="edge-path" d="M66.484375,20L66.484375,21.666666666666668C66.484375,23.333333333333332,66.484375,26.666666666666668,66.484375,31.75C66.484375,36.833333333333336,66.484375,43.666666666666664,66.484375,50.5C66.484375,57.333333333333336,66.484375,64.16666666666667,66.484375,69.25C66.484375,74.33333333333333,66.484375,77.66666666666667,66.484375,79.33333333333333L66.484375,81" style="stroke: rgb(0, 0, 0); stroke-width: 1px; fill: none; marker-end: url(&quot;#arrowhead&quot;);"/><path class="edge-path-hit-test" d="M66.484375,20L66.484375,21.666666666666668C66.484375,23.333333333333332,66.484375,26.666666666666668,66.484375,31.75C66.484375,36.833333333333336,66.484375,43.666666666666664,66.484375,50.5C66.484375,57.333333333333336,66.484375,64.16666666666667,66.484375,69.25C66.484375,74.33333333333333,66.484375,77.66666666666667,66.484375,79.33333333333333L66.484375,81" style="pointer-events: stroke; stroke-width: 0.5em; fill: none; stroke: rgb(0, 0, 0); stroke-opacity: 0.001;"/><path id="edge-embedding_1" class="edge-path" d="M66.484375,119L66.484375,120.66666666666667C66.484375,122.33333333333333,66.484375,125.66666666666667,66.484375,129C66.484375,132.33333333333334,66.484375,135.66666666666666,66.484375,137.33333333333334L66.484375,139" style="stroke: rgb(0, 0, 0); stroke-width: 1px; fill: none; marker-end: url(&quot;#arrowhead&quot;);"/><path class="edge-path-hit-test" d="M66.484375,119L66.484375,120.66666666666667C66.484375,122.33333333333333,66.484375,125.66666666666667,66.484375,129C66.484375,132.33333333333334,66.484375,135.66666666666666,66.484375,137.33333333333334L66.484375,139" style="pointer-events: stroke; stroke-width: 0.5em; fill: none; stroke: rgb(0, 0, 0); stroke-opacity: 0.001;"/><path id="edge-conv1d_1" class="edge-path" d="M66.484375,209L66.484375,210.66666666666666C66.484375,212.33333333333334,66.484375,215.66666666666666,66.484375,219C66.484375,222.33333333333334,66.484375,225.66666666666666,66.484375,227.33333333333334L66.484375,229" style="stroke: rgb(0, 0, 0); stroke-width: 1px; fill: none; marker-end: url(&quot;#arrowhead&quot;);"/><path class="edge-path-hit-test" d="M66.484375,209L66.484375,210.66666666666666C66.484375,212.33333333333334,66.484375,215.66666666666666,66.484375,219C66.484375,222.33333333333334,66.484375,225.66666666666666,66.484375,227.33333333333334L66.484375,229" style="pointer-events: stroke; stroke-width: 0.5em; fill: none; stroke: rgb(0, 0, 0); stroke-opacity: 0.001;"/><path id="edge-global_max_pooling1d_1" class="edge-path" d="M66.484375,249L66.484375,250.66666666666666C66.484375,252.33333333333334,66.484375,255.66666666666666,66.484375,259C66.484375,262.3333333333333,66.484375,265.6666666666667,66.484375,267.3333333333333L66.484375,269" style="stroke: rgb(0, 0, 0); stroke-width: 1px; fill: none; marker-end: url(&quot;#arrowhead&quot;);"/><path class="edge-path-hit-test" d="M66.484375,249L66.484375,250.66666666666666C66.484375,252.33333333333334,66.484375,255.66666666666666,66.484375,259C66.484375,262.3333333333333,66.484375,265.6666666666667,66.484375,267.3333333333333L66.484375,269" style="pointer-events: stroke; stroke-width: 0.5em; fill: none; stroke: rgb(0, 0, 0); stroke-opacity: 0.001;"/><path id="edge-batch_normalization_1" class="edge-path" d="M66.484375,343L66.484375,344.6666666666667C66.484375,346.3333333333333,66.484375,349.6666666666667,66.484375,353C66.484375,356.3333333333333,66.484375,359.6666666666667,66.484375,361.3333333333333L66.484375,363" style="stroke: rgb(0, 0, 0); stroke-width: 1px; fill: none; marker-end: url(&quot;#arrowhead&quot;);"/><path class="edge-path-hit-test" d="M66.484375,343L66.484375,344.6666666666667C66.484375,346.3333333333333,66.484375,349.6666666666667,66.484375,353C66.484375,356.3333333333333,66.484375,359.6666666666667,66.484375,361.3333333333333L66.484375,363" style="pointer-events: stroke; stroke-width: 0.5em; fill: none; stroke: rgb(0, 0, 0); stroke-opacity: 0.001;"/><path id="edge-dropout_1" class="edge-path" d="M66.484375,383L66.484375,384.6666666666667C66.484375,386.3333333333333,66.484375,389.6666666666667,66.484375,393C66.484375,396.3333333333333,66.484375,399.6666666666667,66.484375,401.3333333333333L66.484375,403" style="stroke: rgb(0, 0, 0); stroke-width: 1px; fill: none; marker-end: url(&quot;#arrowhead&quot;);"/><path class="edge-path-hit-test" d="M66.484375,383L66.484375,384.6666666666667C66.484375,386.3333333333333,66.484375,389.6666666666667,66.484375,393C66.484375,396.3333333333333,66.484375,399.6666666666667,66.484375,401.3333333333333L66.484375,403" style="pointer-events: stroke; stroke-width: 0.5em; fill: none; stroke: rgb(0, 0, 0); stroke-opacity: 0.001;"/><path id="edge-dense_1" class="edge-path" d="M66.484375,473L66.484375,474.6666666666667C66.484375,476.3333333333333,66.484375,479.6666666666667,66.484375,483C66.484375,486.3333333333333,66.484375,489.6666666666667,66.484375,491.3333333333333L66.484375,493" style="stroke: rgb(0, 0, 0); stroke-width: 1px; fill: none; marker-end: url(&quot;#arrowhead&quot;);"/><path class="edge-path-hit-test" d="M66.484375,473L66.484375,474.6666666666667C66.484375,476.3333333333333,66.484375,479.6666666666667,66.484375,483C66.484375,486.3333333333333,66.484375,489.6666666666667,66.484375,491.3333333333333L66.484375,493" style="pointer-events: stroke; stroke-width: 0.5em; fill: none; stroke: rgb(0, 0, 0); stroke-opacity: 0.001;"/></g><g id="edge-labels" class="edge-labels"><text class="edge-label" id="edge-label-edge-embedding_1_input" style="opacity: 1; font-family: -apple-system, BlinkMacSystemFont, &quot;Segoe WPC&quot;, &quot;Segoe UI&quot;, Ubuntu, &quot;Droid Sans&quot;, sans-serif, &quot;PingFang SC&quot;; font-size: 10px;" transform="translate(71.484375,45)"><tspan xml:space="preserve" dy="1em" x="1">?×6544</tspan></text></g><g id="nodes" class="nodes"><g id="input-name-embedding_1_input" class="node graph-input" style="" transform="translate(9.195228576660156,0)"><g class="node-item graph-item-input" transform="translate(0,0)"><path d="M5,0h104.57829284667969a5,5 0 0 1 5,5v10a5,5 0 0 1 -5,5h-104.57829284667969a5,5 0 0 1 -5,-5v-10a5,5 0 0 1 5,-5z" style="stroke: rgb(0, 0, 0); fill: rgb(238, 238, 238); stroke-width: 0;"/><text x="6" y="13" style="font-family: -apple-system, BlinkMacSystemFont, &quot;Segoe WPC&quot;, &quot;Segoe UI&quot;, Ubuntu, &quot;Droid Sans&quot;, sans-serif, &quot;PingFang SC&quot;; font-size: 11px; text-rendering: geometricprecision; user-select: none;">embedding_1_input</text><title>float32[?,6544]</title></g><path class="node node-border" d="M5,0h104.57829284667969a5,5 0 0 1 5,5v10a5,5 0 0 1 -5,5h-104.57829284667969a5,5 0 0 1 -5,-5v-10a5,5 0 0 1 5,-5z" style="stroke: rgb(51, 51, 51); fill: none; stroke-width: 1px;"/></g><g id="node-name-embedding_1" class="node graph-node" style="" transform="translate(0,81)"><g class="node-item node-item-type node-item-type-transform" transform="translate(0,0)"><path d="M5,0h122.96875a5,5 0 0 1 5,5v15a0,0 0 0 1 0,0h-132.96875a0,0 0 0 1 0,0v-15a5,5 0 0 1 5,-5z" style="stroke: rgb(0, 0, 0); fill: rgb(51, 85, 68); stroke-width: 0;"/><text x="6" y="13" style="font-family: -apple-system, BlinkMacSystemFont, &quot;Segoe WPC&quot;, &quot;Segoe UI&quot;, Ubuntu, &quot;Droid Sans&quot;, sans-serif, &quot;PingFang SC&quot;; font-size: 11px; text-rendering: geometricprecision; user-select: none; fill: rgb(255, 255, 255);">Embedding</text><title>embedding_1</title></g><g class="node-attribute-list" transform="translate(0,20)"><path d="M0,0h132.96875a0,0 0 0 1 0,0v13a5,5 0 0 1 -5,5h-122.96875a5,5 0 0 1 -5,-5v-13a0,0 0 0 1 0,0z" style="stroke: rgb(0, 0, 0); fill: rgb(255, 255, 255); stroke-width: 0;"/><g class="node-attribute"><text xml:space="preserve" x="6" y="12" style="font-family: -apple-system, BlinkMacSystemFont, &quot;Segoe WPC&quot;, &quot;Segoe UI&quot;, Ubuntu, &quot;Droid Sans&quot;, sans-serif, &quot;PingFang SC&quot;; font-size: 9px; font-weight: normal; text-rendering: geometricprecision; user-select: none;"><title>float32[116681,109]</title><tspan style="font-weight: bold;">embeddings</tspan><tspan>〈116681×109〉</tspan></text></g><line class="node" x1="0" x2="132.96875" y1="0" y2="0" style="stroke: rgb(51, 51, 51); fill: none; stroke-width: 1px;"/></g><path class="node node-border" d="M5,0h122.96875a5,5 0 0 1 5,5v28a5,5 0 0 1 -5,5h-122.96875a5,5 0 0 1 -5,-5v-28a5,5 0 0 1 5,-5z" style="stroke: rgb(51, 51, 51); fill: none; stroke-width: 1px;"/></g><g id="node-name-conv1d_1" class="node graph-node" style="" transform="translate(14.96875,139)"><g class="node-item node-item-type node-item-type-layer" transform="translate(0,0)"><path d="M5,0h93.03125a5,5 0 0 1 5,5v15a0,0 0 0 1 0,0h-103.03125a0,0 0 0 1 0,0v-15a5,5 0 0 1 5,-5z" style="stroke: rgb(0, 0, 0); fill: rgb(51, 85, 136); stroke-width: 0;"/><text x="6" y="13" style="font-family: -apple-system, BlinkMacSystemFont, &quot;Segoe WPC&quot;, &quot;Segoe UI&quot;, Ubuntu, &quot;Droid Sans&quot;, sans-serif, &quot;PingFang SC&quot;; font-size: 11px; text-rendering: geometricprecision; user-select: none; fill: rgb(255, 255, 255);">Conv1D</text><title>conv1d_1</title></g><g class="node-attribute-list" transform="translate(0,20)"><path d="M0,0h103.03125a0,0 0 0 1 0,0v30a0,0 0 0 1 0,0h-103.03125a0,0 0 0 1 0,0v-30a0,0 0 0 1 0,0z" style="stroke: rgb(0, 0, 0); fill: rgb(255, 255, 255); stroke-width: 0;"/><g class="node-attribute"><text xml:space="preserve" x="6" y="12" style="font-family: -apple-system, BlinkMacSystemFont, &quot;Segoe WPC&quot;, &quot;Segoe UI&quot;, Ubuntu, &quot;Droid Sans&quot;, sans-serif, &quot;PingFang SC&quot;; font-size: 9px; font-weight: normal; text-rendering: geometricprecision; user-select: none;"><title>float32[9,109,512]</title><tspan style="font-weight: bold;">kernel</tspan><tspan>〈9×109×512〉</tspan></text></g><g class="node-attribute"><text xml:space="preserve" x="6" y="24" style="font-family: -apple-system, BlinkMacSystemFont, &quot;Segoe WPC&quot;, &quot;Segoe UI&quot;, Ubuntu, &quot;Droid Sans&quot;, sans-serif, &quot;PingFang SC&quot;; font-size: 9px; font-weight: normal; text-rendering: geometricprecision; user-select: none;"><title>float32[512]</title><tspan style="font-weight: bold;">bias</tspan><tspan>〈512〉</tspan></text></g><line class="node" x1="0" x2="103.03125" y1="0" y2="0" style="stroke: rgb(51, 51, 51); fill: none; stroke-width: 1px;"/></g><g class="node-item node-item-type node-item-type-activation" transform="translate(0,50)"><path d="M0,0h103.03125a0,0 0 0 1 0,0v15a5,5 0 0 1 -5,5h-93.03125a5,5 0 0 1 -5,-5v-15a0,0 0 0 1 0,0z" style="stroke: rgb(0, 0, 0); fill: rgb(112, 41, 33); stroke-width: 0;"/><text x="6" y="13" style="font-family: -apple-system, BlinkMacSystemFont, &quot;Segoe WPC&quot;, &quot;Segoe UI&quot;, Ubuntu, &quot;Droid Sans&quot;, sans-serif, &quot;PingFang SC&quot;; font-size: 11px; text-rendering: geometricprecision; user-select: none; fill: rgb(255, 255, 255);">LeakyReLU</text><title>leaky_re_lu_1</title></g><line class="node" x1="0" x2="103.03125" y1="50" y2="50" style="stroke: rgb(51, 51, 51); fill: none; stroke-width: 1px;"/><path class="node node-border" d="M5,0h93.03125a5,5 0 0 1 5,5v60a5,5 0 0 1 -5,5h-93.03125a5,5 0 0 1 -5,-5v-60a5,5 0 0 1 5,-5z" style="stroke: rgb(51, 51, 51); fill: none; stroke-width: 1px;"/></g><g id="node-name-global_max_pooling1d_1" class="node graph-node" style="" transform="translate(6.908744812011719,229)"><g class="node-item node-item-type node-item-type-pool" transform="translate(0,0)"><path d="M5,0h109.15126037597656a5,5 0 0 1 5,5v10a5,5 0 0 1 -5,5h-109.15126037597656a5,5 0 0 1 -5,-5v-10a5,5 0 0 1 5,-5z" style="stroke: rgb(0, 0, 0); fill: rgb(51, 85, 51); stroke-width: 0;"/><text x="6" y="13" style="font-family: -apple-system, BlinkMacSystemFont, &quot;Segoe WPC&quot;, &quot;Segoe UI&quot;, Ubuntu, &quot;Droid Sans&quot;, sans-serif, &quot;PingFang SC&quot;; font-size: 11px; text-rendering: geometricprecision; user-select: none; fill: rgb(255, 255, 255);">GlobalMaxPooling1D</text><title>global_max_pooling1d_1</title></g><path class="node node-border" d="M5,0h109.15126037597656a5,5 0 0 1 5,5v10a5,5 0 0 1 -5,5h-109.15126037597656a5,5 0 0 1 -5,-5v-10a5,5 0 0 1 5,-5z" style="stroke: rgb(51, 51, 51); fill: none; stroke-width: 1px;"/></g><g id="node-name-batch_normalization_1" class="node graph-node" style="" transform="translate(7.9453125,269)"><g class="node-item node-item-type node-item-type-normalization" transform="translate(0,0)"><path d="M5,0h107.078125a5,5 0 0 1 5,5v15a0,0 0 0 1 0,0h-117.078125a0,0 0 0 1 0,0v-15a5,5 0 0 1 5,-5z" style="stroke: rgb(0, 0, 0); fill: rgb(51, 85, 68); stroke-width: 0;"/><text x="6" y="13" style="font-family: -apple-system, BlinkMacSystemFont, &quot;Segoe WPC&quot;, &quot;Segoe UI&quot;, Ubuntu, &quot;Droid Sans&quot;, sans-serif, &quot;PingFang SC&quot;; font-size: 11px; text-rendering: geometricprecision; user-select: none; fill: rgb(255, 255, 255);">BatchNormalization</text><title>batch_normalization_1</title></g><g class="node-attribute-list" transform="translate(0,20)"><path d="M0,0h117.078125a0,0 0 0 1 0,0v49a5,5 0 0 1 -5,5h-107.078125a5,5 0 0 1 -5,-5v-49a0,0 0 0 1 0,0z" style="stroke: rgb(0, 0, 0); fill: rgb(255, 255, 255); stroke-width: 0;"/><g class="node-attribute"><text xml:space="preserve" x="6" y="12" style="font-family: -apple-system, BlinkMacSystemFont, &quot;Segoe WPC&quot;, &quot;Segoe UI&quot;, Ubuntu, &quot;Droid Sans&quot;, sans-serif, &quot;PingFang SC&quot;; font-size: 9px; font-weight: normal; text-rendering: geometricprecision; user-select: none;"><title>float32[512]</title><tspan style="font-weight: bold;">gamma</tspan><tspan>〈512〉</tspan></text></g><g class="node-attribute"><text xml:space="preserve" x="6" y="24" style="font-family: -apple-system, BlinkMacSystemFont, &quot;Segoe WPC&quot;, &quot;Segoe UI&quot;, Ubuntu, &quot;Droid Sans&quot;, sans-serif, &quot;PingFang SC&quot;; font-size: 9px; font-weight: normal; text-rendering: geometricprecision; user-select: none;"><title>float32[512]</title><tspan style="font-weight: bold;">beta</tspan><tspan>〈512〉</tspan></text></g><g class="node-attribute"><text xml:space="preserve" x="6" y="36" style="font-family: -apple-system, BlinkMacSystemFont, &quot;Segoe WPC&quot;, &quot;Segoe UI&quot;, Ubuntu, &quot;Droid Sans&quot;, sans-serif, &quot;PingFang SC&quot;; font-size: 9px; font-weight: normal; text-rendering: geometricprecision; user-select: none;"><title>float32[512]</title><tspan style="font-weight: bold;">moving_mean</tspan><tspan>〈512〉</tspan></text></g><g class="node-attribute"><text xml:space="preserve" x="6" y="48" style="font-family: -apple-system, BlinkMacSystemFont, &quot;Segoe WPC&quot;, &quot;Segoe UI&quot;, Ubuntu, &quot;Droid Sans&quot;, sans-serif, &quot;PingFang SC&quot;; font-size: 9px; font-weight: normal; text-rendering: geometricprecision; user-select: none;"><title>float32[512]</title><tspan style="font-weight: bold;">moving_variance</tspan><tspan>〈512〉</tspan></text></g><line class="node" x1="0" x2="117.078125" y1="0" y2="0" style="stroke: rgb(51, 51, 51); fill: none; stroke-width: 1px;"/></g><path class="node node-border" d="M5,0h107.078125a5,5 0 0 1 5,5v64a5,5 0 0 1 -5,5h-107.078125a5,5 0 0 1 -5,-5v-64a5,5 0 0 1 5,-5z" style="stroke: rgb(51, 51, 51); fill: none; stroke-width: 1px;"/></g><g id="node-name-dropout_1" class="node graph-node" style="" transform="translate(38.05352020263672,363)"><g class="node-item node-item-type node-item-type-dropout" transform="translate(0,0)"><path d="M5,0h46.86170959472656a5,5 0 0 1 5,5v10a5,5 0 0 1 -5,5h-46.86170959472656a5,5 0 0 1 -5,-5v-10a5,5 0 0 1 5,-5z" style="stroke: rgb(0, 0, 0); fill: rgb(69, 71, 112); stroke-width: 0;"/><text x="6" y="13" style="font-family: -apple-system, BlinkMacSystemFont, &quot;Segoe WPC&quot;, &quot;Segoe UI&quot;, Ubuntu, &quot;Droid Sans&quot;, sans-serif, &quot;PingFang SC&quot;; font-size: 11px; text-rendering: geometricprecision; user-select: none; fill: rgb(255, 255, 255);">Dropout</text><title>dropout_1</title></g><path class="node node-border" d="M5,0h46.86170959472656a5,5 0 0 1 5,5v10a5,5 0 0 1 -5,5h-46.86170959472656a5,5 0 0 1 -5,-5v-10a5,5 0 0 1 5,-5z" style="stroke: rgb(51, 51, 51); fill: none; stroke-width: 1px;"/></g><g id="node-name-dense_1" class="node graph-node" style="" transform="translate(20.0390625,403)"><g class="node-item node-item-type node-item-type-layer" transform="translate(0,0)"><path d="M5,0h82.890625a5,5 0 0 1 5,5v15a0,0 0 0 1 0,0h-92.890625a0,0 0 0 1 0,0v-15a5,5 0 0 1 5,-5z" style="stroke: rgb(0, 0, 0); fill: rgb(51, 85, 136); stroke-width: 0;"/><text x="6" y="13" style="font-family: -apple-system, BlinkMacSystemFont, &quot;Segoe WPC&quot;, &quot;Segoe UI&quot;, Ubuntu, &quot;Droid Sans&quot;, sans-serif, &quot;PingFang SC&quot;; font-size: 11px; text-rendering: geometricprecision; user-select: none; fill: rgb(255, 255, 255);">Dense</text><title>dense_1</title></g><g class="node-attribute-list" transform="translate(0,20)"><path d="M0,0h92.890625a0,0 0 0 1 0,0v30a0,0 0 0 1 0,0h-92.890625a0,0 0 0 1 0,0v-30a0,0 0 0 1 0,0z" style="stroke: rgb(0, 0, 0); fill: rgb(255, 255, 255); stroke-width: 0;"/><g class="node-attribute"><text xml:space="preserve" x="6" y="12" style="font-family: -apple-system, BlinkMacSystemFont, &quot;Segoe WPC&quot;, &quot;Segoe UI&quot;, Ubuntu, &quot;Droid Sans&quot;, sans-serif, &quot;PingFang SC&quot;; font-size: 9px; font-weight: normal; text-rendering: geometricprecision; user-select: none;"><title>float32[512,109]</title><tspan style="font-weight: bold;">kernel</tspan><tspan>〈512×109〉</tspan></text></g><g class="node-attribute"><text xml:space="preserve" x="6" y="24" style="font-family: -apple-system, BlinkMacSystemFont, &quot;Segoe WPC&quot;, &quot;Segoe UI&quot;, Ubuntu, &quot;Droid Sans&quot;, sans-serif, &quot;PingFang SC&quot;; font-size: 9px; font-weight: normal; text-rendering: geometricprecision; user-select: none;"><title>float32[109]</title><tspan style="font-weight: bold;">bias</tspan><tspan>〈109〉</tspan></text></g><line class="node" x1="0" x2="92.890625" y1="0" y2="0" style="stroke: rgb(51, 51, 51); fill: none; stroke-width: 1px;"/></g><g class="node-item node-item-type node-item-type-activation" transform="translate(0,50)"><path d="M0,0h92.890625a0,0 0 0 1 0,0v15a5,5 0 0 1 -5,5h-82.890625a5,5 0 0 1 -5,-5v-15a0,0 0 0 1 0,0z" style="stroke: rgb(0, 0, 0); fill: rgb(112, 41, 33); stroke-width: 0;"/><text x="6" y="13" style="font-family: -apple-system, BlinkMacSystemFont, &quot;Segoe WPC&quot;, &quot;Segoe UI&quot;, Ubuntu, &quot;Droid Sans&quot;, sans-serif, &quot;PingFang SC&quot;; font-size: 11px; text-rendering: geometricprecision; user-select: none; fill: rgb(255, 255, 255);">Activation</text></g><line class="node" x1="0" x2="92.890625" y1="50" y2="50" style="stroke: rgb(51, 51, 51); fill: none; stroke-width: 1px;"/><path class="node node-border" d="M5,0h82.890625a5,5 0 0 1 5,5v60a5,5 0 0 1 -5,5h-82.890625a5,5 0 0 1 -5,-5v-60a5,5 0 0 1 5,-5z" style="stroke: rgb(51, 51, 51); fill: none; stroke-width: 1px;"/></g><g class="node" style="" transform="translate(38.671875,493)"><g class="node-item graph-item-output" transform="translate(0,0)"><path d="M5,0h45.625a5,5 0 0 1 5,5v10a5,5 0 0 1 -5,5h-45.625a5,5 0 0 1 -5,-5v-10a5,5 0 0 1 5,-5z" style="stroke: rgb(0, 0, 0); fill: rgb(238, 238, 238); stroke-width: 0;"/><text x="6" y="13" style="font-family: -apple-system, BlinkMacSystemFont, &quot;Segoe WPC&quot;, &quot;Segoe UI&quot;, Ubuntu, &quot;Droid Sans&quot;, sans-serif, &quot;PingFang SC&quot;; font-size: 11px; text-rendering: geometricprecision; user-select: none;">dense_1</text></g><path class="node node-border" d="M5,0h45.625a5,5 0 0 1 5,5v10a5,5 0 0 1 -5,5h-45.625a5,5 0 0 1 -5,-5v-10a5,5 0 0 1 5,-5z" style="stroke: rgb(51, 51, 51); fill: none; stroke-width: 1px;"/></g></g></g></svg>