<svg xmlns="http://www.w3.org/2000/svg" id="export" class="canvas" preserveAspectRatio="xMidYMid meet" style="" width="141" height="526"><rect id="background" fill="#fff" pointer-events="all" width="141" height="526"/><g id="origin" transform="translate(6.39453125, 6.39453125) scale(1)"><g id="clusters" class="clusters"/><g id="edge-paths" class="edge-paths"><defs><marker id="arrowhead" viewBox="0 0 10 10" refX="9" refY="5" markerUnits="strokeWidth" markerWidth="8" markerHeight="6" orient="auto" style="fill: rgb(0, 0, 0);"><path d="M 0 0 L 10 5 L 0 10 L 4 5 z" style="stroke-width: 1;"/></marker><marker id="arrowhead-select" viewBox="0 0 10 10" refX="9" refY="5" markerUnits="strokeWidth" markerWidth="8" markerHeight="6" orient="auto" style="fill: rgb(238, 0, 0);"><path d="M 0 0 L 10 5 L 0 10 L 4 5 z" style="stroke-width: 1;"/></marker><marker id="arrowhead-hover" viewBox="0 0 10 10" refX="9" refY="5" markerUnits="strokeWidth" markerWidth="8" markerHeight="6" orient="auto"><path d="M 0 0 L 10 5 L 0 10 L 4 5 z" style="stroke-width: 1;"/></marker></defs><path id="edge-embedding_input" class="edge-path" d="M63.9453125,20L63.9453125,21.666666666666668C63.9453125,23.333333333333332,63.9453125,26.666666666666668,63.9453125,31.75C63.9453125,36.833333333333336,63.9453125,43.666666666666664,63.9453125,50.5C63.9453125,57.333333333333336,63.9453125,64.16666666666667,63.9453125,69.25C63.9453125,74.33333333333333,63.9453125,77.66666666666667,63.9453125,79.33333333333333L63.9453125,81" style="stroke: rgb(0, 0, 0); stroke-width: 1px; fill: none; marker-end: url(&quot;#arrowhead&quot;);"/><path class="edge-path-hit-test" d="M63.9453125,20L63.9453125,21.666666666666668C63.9453125,23.333333333333332,63.9453125,26.666666666666668,63.9453125,31.75C63.9453125,36.833333333333336,63.9453125,43.666666666666664,63.9453125,50.5C63.9453125,57.333333333333336,63.9453125,64.16666666666667,63.9453125,69.25C63.9453125,74.33333333333333,63.9453125,77.66666666666667,63.9453125,79.33333333333333L63.9453125,81" style="pointer-events: stroke; stroke-width: 0.5em; fill: none; stroke: rgb(0, 0, 0); stroke-opacity: 0.001;"/><path id="edge-embedding" class="edge-path" d="M63.9453125,119L63.9453125,120.66666666666667C63.9453125,122.33333333333333,63.9453125,125.66666666666667,63.9453125,129C63.9453125,132.33333333333334,63.9453125,135.66666666666666,63.9453125,137.33333333333334L63.9453125,139" style="stroke: rgb(0, 0, 0); stroke-width: 1px; fill: none; marker-end: url(&quot;#arrowhead&quot;);"/><path class="edge-path-hit-test" d="M63.9453125,119L63.9453125,120.66666666666667C63.9453125,122.33333333333333,63.9453125,125.66666666666667,63.9453125,129C63.9453125,132.33333333333334,63.9453125,135.66666666666666,63.9453125,137.33333333333334L63.9453125,139" style="pointer-events: stroke; stroke-width: 0.5em; fill: none; stroke: rgb(0, 0, 0); stroke-opacity: 0.001;"/><path id="edge-conv1d" class="edge-path" d="M63.9453125,209L63.9453125,210.66666666666666C63.9453125,212.33333333333334,63.9453125,215.66666666666666,63.9453125,219C63.9453125,222.33333333333334,63.9453125,225.66666666666666,63.9453125,227.33333333333334L63.9453125,229" style="stroke: rgb(0, 0, 0); stroke-width: 1px; fill: none; marker-end: url(&quot;#arrowhead&quot;);"/><path class="edge-path-hit-test" d="M63.9453125,209L63.9453125,210.66666666666666C63.9453125,212.33333333333334,63.9453125,215.66666666666666,63.9453125,219C63.9453125,222.33333333333334,63.9453125,225.66666666666666,63.9453125,227.33333333333334L63.9453125,229" style="pointer-events: stroke; stroke-width: 0.5em; fill: none; stroke: rgb(0, 0, 0); stroke-opacity: 0.001;"/><path id="edge-global_max_pooling1d" class="edge-path" d="M63.9453125,249L63.9453125,250.66666666666666C63.9453125,252.33333333333334,63.9453125,255.66666666666666,63.9453125,259C63.9453125,262.3333333333333,63.9453125,265.6666666666667,63.9453125,267.3333333333333L63.9453125,269" style="stroke: rgb(0, 0, 0); stroke-width: 1px; fill: none; marker-end: url(&quot;#arrowhead&quot;);"/><path class="edge-path-hit-test" d="M63.9453125,249L63.9453125,250.66666666666666C63.9453125,252.33333333333334,63.9453125,255.66666666666666,63.9453125,259C63.9453125,262.3333333333333,63.9453125,265.6666666666667,63.9453125,267.3333333333333L63.9453125,269" style="pointer-events: stroke; stroke-width: 0.5em; fill: none; stroke: rgb(0, 0, 0); stroke-opacity: 0.001;"/><path id="edge-batch_normalization" class="edge-path" d="M63.9453125,343L63.9453125,344.6666666666667C63.9453125,346.3333333333333,63.9453125,349.6666666666667,63.9453125,353C63.9453125,356.3333333333333,63.9453125,359.6666666666667,63.9453125,361.3333333333333L63.9453125,363" style="stroke: rgb(0, 0, 0); stroke-width: 1px; fill: none; marker-end: url(&quot;#arrowhead&quot;);"/><path class="edge-path-hit-test" d="M63.9453125,343L63.9453125,344.6666666666667C63.9453125,346.3333333333333,63.9453125,349.6666666666667,63.9453125,353C63.9453125,356.3333333333333,63.9453125,359.6666666666667,63.9453125,361.3333333333333L63.9453125,363" style="pointer-events: stroke; stroke-width: 0.5em; fill: none; stroke: rgb(0, 0, 0); stroke-opacity: 0.001;"/><path id="edge-dropout" class="edge-path" d="M63.9453125,383L63.9453125,384.6666666666667C63.9453125,386.3333333333333,63.9453125,389.6666666666667,63.9453125,393C63.9453125,396.3333333333333,63.9453125,399.6666666666667,63.9453125,401.3333333333333L63.9453125,403" style="stroke: rgb(0, 0, 0); stroke-width: 1px; fill: none; marker-end: url(&quot;#arrowhead&quot;);"/><path class="edge-path-hit-test" d="M63.9453125,383L63.9453125,384.6666666666667C63.9453125,386.3333333333333,63.9453125,389.6666666666667,63.9453125,393C63.9453125,396.3333333333333,63.9453125,399.6666666666667,63.9453125,401.3333333333333L63.9453125,403" style="pointer-events: stroke; stroke-width: 0.5em; fill: none; stroke: rgb(0, 0, 0); stroke-opacity: 0.001;"/><path id="edge-dense" class="edge-path" d="M63.9453125,473L63.9453125,474.6666666666667C63.9453125,476.3333333333333,63.9453125,479.6666666666667,63.9453125,483C63.9453125,486.3333333333333,63.9453125,489.6666666666667,63.9453125,491.3333333333333L63.9453125,493" style="stroke: rgb(0, 0, 0); stroke-width: 1px; fill: none; marker-end: url(&quot;#arrowhead&quot;);"/><path class="edge-path-hit-test" d="M63.9453125,473L63.9453125,474.6666666666667C63.9453125,476.3333333333333,63.9453125,479.6666666666667,63.9453125,483C63.9453125,486.3333333333333,63.9453125,489.6666666666667,63.9453125,491.3333333333333L63.9453125,493" style="pointer-events: stroke; stroke-width: 0.5em; fill: none; stroke: rgb(0, 0, 0); stroke-opacity: 0.001;"/></g><g id="edge-labels" class="edge-labels"><text class="edge-label" id="edge-label-edge-embedding_input" style="opacity: 1; font-family: -apple-system, BlinkMacSystemFont, &quot;Segoe WPC&quot;, &quot;Segoe UI&quot;, Ubuntu, &quot;Droid Sans&quot;, sans-serif, &quot;PingFang SC&quot;; font-size: 10px;" transform="translate(68.9453125,45)"><tspan xml:space="preserve" dy="1em" x="1">?×6544</tspan></text></g><g id="nodes" class="nodes"><g id="input-name-embedding_input" class="node graph-input" style="" transform="translate(12.464118957519531,0)"><g class="node-item graph-item-input" transform="translate(0,0)"><path d="M5,0h92.96238708496094a5,5 0 0 1 5,5v10a5,5 0 0 1 -5,5h-92.96238708496094a5,5 0 0 1 -5,-5v-10a5,5 0 0 1 5,-5z" style="stroke: rgb(0, 0, 0); fill: rgb(238, 238, 238); stroke-width: 0;"/><text x="6" y="13" style="font-family: -apple-system, BlinkMacSystemFont, &quot;Segoe WPC&quot;, &quot;Segoe UI&quot;, Ubuntu, &quot;Droid Sans&quot;, sans-serif, &quot;PingFang SC&quot;; font-size: 11px; text-rendering: geometricprecision; user-select: none;">embedding_input</text><title>float32[?,6544]</title></g><path class="node node-border" d="M5,0h92.96238708496094a5,5 0 0 1 5,5v10a5,5 0 0 1 -5,5h-92.96238708496094a5,5 0 0 1 -5,-5v-10a5,5 0 0 1 5,-5z" style="stroke: rgb(51, 51, 51); fill: none; stroke-width: 1px;"/></g><g id="node-name-embedding" class="node graph-node" style="" transform="translate(0,81)"><g class="node-item node-item-type node-item-type-transform" transform="translate(0,0)"><path d="M5,0h117.890625a5,5 0 0 1 5,5v15a0,0 0 0 1 0,0h-127.890625a0,0 0 0 1 0,0v-15a5,5 0 0 1 5,-5z" style="stroke: rgb(0, 0, 0); fill: rgb(51, 85, 68); stroke-width: 0;"/><text x="6" y="13" style="font-family: -apple-system, BlinkMacSystemFont, &quot;Segoe WPC&quot;, &quot;Segoe UI&quot;, Ubuntu, &quot;Droid Sans&quot;, sans-serif, &quot;PingFang SC&quot;; font-size: 11px; text-rendering: geometricprecision; user-select: none; fill: rgb(255, 255, 255);">Embedding</text><title>embedding</title></g><g class="node-attribute-list" transform="translate(0,20)"><path d="M0,0h127.890625a0,0 0 0 1 0,0v13a5,5 0 0 1 -5,5h-117.890625a5,5 0 0 1 -5,-5v-13a0,0 0 0 1 0,0z" style="stroke: rgb(0, 0, 0); fill: rgb(255, 255, 255); stroke-width: 0;"/><g class="node-attribute"><text xml:space="preserve" x="6" y="12" style="font-family: -apple-system, BlinkMacSystemFont, &quot;Segoe WPC&quot;, &quot;Segoe UI&quot;, Ubuntu, &quot;Droid Sans&quot;, sans-serif, &quot;PingFang SC&quot;; font-size: 9px; font-weight: normal; text-rendering: geometricprecision; user-select: none;"><title>float32[116473,17]</title><tspan style="font-weight: bold;">embeddings</tspan><tspan>〈116473×17〉</tspan></text></g><line class="node" x1="0" x2="127.890625" y1="0" y2="0" style="stroke: rgb(51, 51, 51); fill: none; stroke-width: 1px;"/></g><path class="node node-border" d="M5,0h117.890625a5,5 0 0 1 5,5v28a5,5 0 0 1 -5,5h-117.890625a5,5 0 0 1 -5,-5v-28a5,5 0 0 1 5,-5z" style="stroke: rgb(51, 51, 51); fill: none; stroke-width: 1px;"/></g><g id="node-name-conv1d" class="node graph-node" style="" transform="translate(14.96875,139)"><g class="node-item node-item-type node-item-type-layer" transform="translate(0,0)"><path d="M5,0h87.953125a5,5 0 0 1 5,5v15a0,0 0 0 1 0,0h-97.953125a0,0 0 0 1 0,0v-15a5,5 0 0 1 5,-5z" style="stroke: rgb(0, 0, 0); fill: rgb(51, 85, 136); stroke-width: 0;"/><text x="6" y="13" style="font-family: -apple-system, BlinkMacSystemFont, &quot;Segoe WPC&quot;, &quot;Segoe UI&quot;, Ubuntu, &quot;Droid Sans&quot;, sans-serif, &quot;PingFang SC&quot;; font-size: 11px; text-rendering: geometricprecision; user-select: none; fill: rgb(255, 255, 255);">Conv1D</text><title>conv1d</title></g><g class="node-attribute-list" transform="translate(0,20)"><path d="M0,0h97.953125a0,0 0 0 1 0,0v30a0,0 0 0 1 0,0h-97.953125a0,0 0 0 1 0,0v-30a0,0 0 0 1 0,0z" style="stroke: rgb(0, 0, 0); fill: rgb(255, 255, 255); stroke-width: 0;"/><g class="node-attribute"><text xml:space="preserve" x="6" y="12" style="font-family: -apple-system, BlinkMacSystemFont, &quot;Segoe WPC&quot;, &quot;Segoe UI&quot;, Ubuntu, &quot;Droid Sans&quot;, sans-serif, &quot;PingFang SC&quot;; font-size: 9px; font-weight: normal; text-rendering: geometricprecision; user-select: none;"><title>float32[9,17,512]</title><tspan style="font-weight: bold;">kernel</tspan><tspan>〈9×17×512〉</tspan></text></g><g class="node-attribute"><text xml:space="preserve" x="6" y="24" style="font-family: -apple-system, BlinkMacSystemFont, &quot;Segoe WPC&quot;, &quot;Segoe UI&quot;, Ubuntu, &quot;Droid Sans&quot;, sans-serif, &quot;PingFang SC&quot;; font-size: 9px; font-weight: normal; text-rendering: geometricprecision; user-select: none;"><title>float32[512]</title><tspan style="font-weight: bold;">bias</tspan><tspan>〈512〉</tspan></text></g><line class="node" x1="0" x2="97.953125" y1="0" y2="0" style="stroke: rgb(51, 51, 51); fill: none; stroke-width: 1px;"/></g><g class="node-item node-item-type node-item-type-activation" transform="translate(0,50)"><path d="M0,0h97.953125a0,0 0 0 1 0,0v15a5,5 0 0 1 -5,5h-87.953125a5,5 0 0 1 -5,-5v-15a0,0 0 0 1 0,0z" style="stroke: rgb(0, 0, 0); fill: rgb(112, 41, 33); stroke-width: 0;"/><text x="6" y="13" style="font-family: -apple-system, BlinkMacSystemFont, &quot;Segoe WPC&quot;, &quot;Segoe UI&quot;, Ubuntu, &quot;Droid Sans&quot;, sans-serif, &quot;PingFang SC&quot;; font-size: 11px; text-rendering: geometricprecision; user-select: none; fill: rgb(255, 255, 255);">LeakyReLU</text><title>leaky_re_lu</title></g><line class="node" x1="0" x2="97.953125" y1="50" y2="50" style="stroke: rgb(51, 51, 51); fill: none; stroke-width: 1px;"/><path class="node node-border" d="M5,0h87.953125a5,5 0 0 1 5,5v60a5,5 0 0 1 -5,5h-87.953125a5,5 0 0 1 -5,-5v-60a5,5 0 0 1 5,-5z" style="stroke: rgb(51, 51, 51); fill: none; stroke-width: 1px;"/></g><g id="node-name-global_max_pooling1d" class="node graph-node" style="" transform="translate(4.369682312011719,229)"><g class="node-item node-item-type node-item-type-pool" transform="translate(0,0)"><path d="M5,0h109.15126037597656a5,5 0 0 1 5,5v10a5,5 0 0 1 -5,5h-109.15126037597656a5,5 0 0 1 -5,-5v-10a5,5 0 0 1 5,-5z" style="stroke: rgb(0, 0, 0); fill: rgb(51, 85, 51); stroke-width: 0;"/><text x="6" y="13" style="font-family: -apple-system, BlinkMacSystemFont, &quot;Segoe WPC&quot;, &quot;Segoe UI&quot;, Ubuntu, &quot;Droid Sans&quot;, sans-serif, &quot;PingFang SC&quot;; font-size: 11px; text-rendering: geometricprecision; user-select: none; fill: rgb(255, 255, 255);">GlobalMaxPooling1D</text><title>global_max_pooling1d</title></g><path class="node node-border" d="M5,0h109.15126037597656a5,5 0 0 1 5,5v10a5,5 0 0 1 -5,5h-109.15126037597656a5,5 0 0 1 -5,-5v-10a5,5 0 0 1 5,-5z" style="stroke: rgb(51, 51, 51); fill: none; stroke-width: 1px;"/></g><g id="node-name-batch_normalization" class="node graph-node" style="" transform="translate(5.40625,269)"><g class="node-item node-item-type node-item-type-normalization" transform="translate(0,0)"><path d="M5,0h107.078125a5,5 0 0 1 5,5v15a0,0 0 0 1 0,0h-117.078125a0,0 0 0 1 0,0v-15a5,5 0 0 1 5,-5z" style="stroke: rgb(0, 0, 0); fill: rgb(51, 85, 68); stroke-width: 0;"/><text x="6" y="13" style="font-family: -apple-system, BlinkMacSystemFont, &quot;Segoe WPC&quot;, &quot;Segoe UI&quot;, Ubuntu, &quot;Droid Sans&quot;, sans-serif, &quot;PingFang SC&quot;; font-size: 11px; text-rendering: geometricprecision; user-select: none; fill: rgb(255, 255, 255);">BatchNormalization</text><title>batch_normalization</title></g><g class="node-attribute-list" transform="translate(0,20)"><path d="M0,0h117.078125a0,0 0 0 1 0,0v49a5,5 0 0 1 -5,5h-107.078125a5,5 0 0 1 -5,-5v-49a0,0 0 0 1 0,0z" style="stroke: rgb(0, 0, 0); fill: rgb(255, 255, 255); stroke-width: 0;"/><g class="node-attribute"><text xml:space="preserve" x="6" y="12" style="font-family: -apple-system, BlinkMacSystemFont, &quot;Segoe WPC&quot;, &quot;Segoe UI&quot;, Ubuntu, &quot;Droid Sans&quot;, sans-serif, &quot;PingFang SC&quot;; font-size: 9px; font-weight: normal; text-rendering: geometricprecision; user-select: none;"><title>float32[512]</title><tspan style="font-weight: bold;">gamma</tspan><tspan>〈512〉</tspan></text></g><g class="node-attribute"><text xml:space="preserve" x="6" y="24" style="font-family: -apple-system, BlinkMacSystemFont, &quot;Segoe WPC&quot;, &quot;Segoe UI&quot;, Ubuntu, &quot;Droid Sans&quot;, sans-serif, &quot;PingFang SC&quot;; font-size: 9px; font-weight: normal; text-rendering: geometricprecision; user-select: none;"><title>float32[512]</title><tspan style="font-weight: bold;">beta</tspan><tspan>〈512〉</tspan></text></g><g class="node-attribute"><text xml:space="preserve" x="6" y="36" style="font-family: -apple-system, BlinkMacSystemFont, &quot;Segoe WPC&quot;, &quot;Segoe UI&quot;, Ubuntu, &quot;Droid Sans&quot;, sans-serif, &quot;PingFang SC&quot;; font-size: 9px; font-weight: normal; text-rendering: geometricprecision; user-select: none;"><title>float32[512]</title><tspan style="font-weight: bold;">moving_mean</tspan><tspan>〈512〉</tspan></text></g><g class="node-attribute"><text xml:space="preserve" x="6" y="48" style="font-family: -apple-system, BlinkMacSystemFont, &quot;Segoe WPC&quot;, &quot;Segoe UI&quot;, Ubuntu, &quot;Droid Sans&quot;, sans-serif, &quot;PingFang SC&quot;; font-size: 9px; font-weight: normal; text-rendering: geometricprecision; user-select: none;"><title>float32[512]</title><tspan style="font-weight: bold;">moving_variance</tspan><tspan>〈512〉</tspan></text></g><line class="node" x1="0" x2="117.078125" y1="0" y2="0" style="stroke: rgb(51, 51, 51); fill: none; stroke-width: 1px;"/></g><path class="node node-border" d="M5,0h107.078125a5,5 0 0 1 5,5v64a5,5 0 0 1 -5,5h-107.078125a5,5 0 0 1 -5,-5v-64a5,5 0 0 1 5,-5z" style="stroke: rgb(51, 51, 51); fill: none; stroke-width: 1px;"/></g><g id="node-name-dropout" class="node graph-node" style="" transform="translate(35.51445770263672,363)"><g class="node-item node-item-type node-item-type-dropout" transform="translate(0,0)"><path d="M5,0h46.86170959472656a5,5 0 0 1 5,5v10a5,5 0 0 1 -5,5h-46.86170959472656a5,5 0 0 1 -5,-5v-10a5,5 0 0 1 5,-5z" style="stroke: rgb(0, 0, 0); fill: rgb(69, 71, 112); stroke-width: 0;"/><text x="6" y="13" style="font-family: -apple-system, BlinkMacSystemFont, &quot;Segoe WPC&quot;, &quot;Segoe UI&quot;, Ubuntu, &quot;Droid Sans&quot;, sans-serif, &quot;PingFang SC&quot;; font-size: 11px; text-rendering: geometricprecision; user-select: none; fill: rgb(255, 255, 255);">Dropout</text><title>dropout</title></g><path class="node node-border" d="M5,0h46.86170959472656a5,5 0 0 1 5,5v10a5,5 0 0 1 -5,5h-46.86170959472656a5,5 0 0 1 -5,-5v-10a5,5 0 0 1 5,-5z" style="stroke: rgb(51, 51, 51); fill: none; stroke-width: 1px;"/></g><g id="node-name-dense" class="node graph-node" style="" transform="translate(20.0390625,403)"><g class="node-item node-item-type node-item-type-layer" transform="translate(0,0)"><path d="M5,0h77.8125a5,5 0 0 1 5,5v15a0,0 0 0 1 0,0h-87.8125a0,0 0 0 1 0,0v-15a5,5 0 0 1 5,-5z" style="stroke: rgb(0, 0, 0); fill: rgb(51, 85, 136); stroke-width: 0;"/><text x="6" y="13" style="font-family: -apple-system, BlinkMacSystemFont, &quot;Segoe WPC&quot;, &quot;Segoe UI&quot;, Ubuntu, &quot;Droid Sans&quot;, sans-serif, &quot;PingFang SC&quot;; font-size: 11px; text-rendering: geometricprecision; user-select: none; fill: rgb(255, 255, 255);">Dense</text><title>dense</title></g><g class="node-attribute-list" transform="translate(0,20)"><path d="M0,0h87.8125a0,0 0 0 1 0,0v30a0,0 0 0 1 0,0h-87.8125a0,0 0 0 1 0,0v-30a0,0 0 0 1 0,0z" style="stroke: rgb(0, 0, 0); fill: rgb(255, 255, 255); stroke-width: 0;"/><g class="node-attribute"><text xml:space="preserve" x="6" y="12" style="font-family: -apple-system, BlinkMacSystemFont, &quot;Segoe WPC&quot;, &quot;Segoe UI&quot;, Ubuntu, &quot;Droid Sans&quot;, sans-serif, &quot;PingFang SC&quot;; font-size: 9px; font-weight: normal; text-rendering: geometricprecision; user-select: none;"><title>float32[512,17]</title><tspan style="font-weight: bold;">kernel</tspan><tspan>〈512×17〉</tspan></text></g><g class="node-attribute"><text xml:space="preserve" x="6" y="24" style="font-family: -apple-system, BlinkMacSystemFont, &quot;Segoe WPC&quot;, &quot;Segoe UI&quot;, Ubuntu, &quot;Droid Sans&quot;, sans-serif, &quot;PingFang SC&quot;; font-size: 9px; font-weight: normal; text-rendering: geometricprecision; user-select: none;"><title>float32[17]</title><tspan style="font-weight: bold;">bias</tspan><tspan>〈17〉</tspan></text></g><line class="node" x1="0" x2="87.8125" y1="0" y2="0" style="stroke: rgb(51, 51, 51); fill: none; stroke-width: 1px;"/></g><g class="node-item node-item-type node-item-type-activation" transform="translate(0,50)"><path d="M0,0h87.8125a0,0 0 0 1 0,0v15a5,5 0 0 1 -5,5h-77.8125a5,5 0 0 1 -5,-5v-15a0,0 0 0 1 0,0z" style="stroke: rgb(0, 0, 0); fill: rgb(112, 41, 33); stroke-width: 0;"/><text x="6" y="13" style="font-family: -apple-system, BlinkMacSystemFont, &quot;Segoe WPC&quot;, &quot;Segoe UI&quot;, Ubuntu, &quot;Droid Sans&quot;, sans-serif, &quot;PingFang SC&quot;; font-size: 11px; text-rendering: geometricprecision; user-select: none; fill: rgb(255, 255, 255);">Activation</text></g><line class="node" x1="0" x2="87.8125" y1="50" y2="50" style="stroke: rgb(51, 51, 51); fill: none; stroke-width: 1px;"/><path class="node node-border" d="M5,0h77.8125a5,5 0 0 1 5,5v60a5,5 0 0 1 -5,5h-77.8125a5,5 0 0 1 -5,-5v-60a5,5 0 0 1 5,-5z" style="stroke: rgb(51, 51, 51); fill: none; stroke-width: 1px;"/></g><g class="node" style="" transform="translate(41.9453125,493)"><g class="node-item graph-item-output" transform="translate(0,0)"><path d="M5,0h34a5,5 0 0 1 5,5v10a5,5 0 0 1 -5,5h-34a5,5 0 0 1 -5,-5v-10a5,5 0 0 1 5,-5z" style="stroke: rgb(0, 0, 0); fill: rgb(238, 238, 238); stroke-width: 0;"/><text x="6" y="13" style="font-family: -apple-system, BlinkMacSystemFont, &quot;Segoe WPC&quot;, &quot;Segoe UI&quot;, Ubuntu, &quot;Droid Sans&quot;, sans-serif, &quot;PingFang SC&quot;; font-size: 11px; text-rendering: geometricprecision; user-select: none;">dense</text></g><path class="node node-border" d="M5,0h34a5,5 0 0 1 5,5v10a5,5 0 0 1 -5,5h-34a5,5 0 0 1 -5,-5v-10a5,5 0 0 1 5,-5z" style="stroke: rgb(51, 51, 51); fill: none; stroke-width: 1px;"/></g></g></g></svg>